<svg width="15" height="14" viewBox="0 0 15 14" fill="none" xmlns="http://www.w3.org/2000/svg">
<path d="M7.01814 1.16892C7.13799 0.800621 7.65903 0.800619 7.77888 1.16892L9.1074 5.25164C9.161 5.41636 9.31454 5.52786 9.48777 5.52786H13.7857C14.1733 5.52786 14.3343 6.02401 14.0206 6.25164L10.5445 8.77341C10.4041 8.87527 10.3453 9.05601 10.399 9.22096L11.727 13.302C11.8469 13.6704 11.4253 13.9771 11.1117 13.7496L7.6334 11.2261C7.4933 11.1245 7.30372 11.1245 7.16362 11.2261L3.68527 13.7496C3.37167 13.9771 2.95014 13.6704 3.07002 13.302L4.398 9.22096C4.45167 9.05601 4.39292 8.87527 4.25252 8.77341L0.776449 6.25164C0.462687 6.02401 0.623702 5.52786 1.01133 5.52786H5.30925C5.48248 5.52786 5.63602 5.41636 5.68962 5.25164L7.01814 1.16892Z" fill="white"/>
</svg>
