<svg width="41" height="42" viewBox="0 0 41 42" fill="none" xmlns="http://www.w3.org/2000/svg">
<path d="M25.8714 11.1562H25.2404V10.5L25.8714 11.1562Z" fill="#8D88FA"/>
<path d="M34.7056 13.6146C34.7056 19.6629 30.4694 24.2842 24.8347 25.0821C24.3854 25.1461 24.2131 25.1801 23.4727 25.2918C22.663 25.4143 18.9753 25.7411 16.173 29.9118C14.0157 33.1211 14.2612 35.5311 13.8068 36.8927C13.2034 38.7173 11.5398 40.0312 9.58494 40.0312C8.3052 40.0312 7.14561 39.4648 6.33729 38.5662C6.17536 38.4205 5.67914 37.82 5.67914 36.92V35.3228C5.67914 34.0783 5.79797 32.8624 6.02388 31.6873C7.23702 25.2877 11.592 20.0687 17.3456 17.8506H17.3521C18.0743 17.5674 18.8238 17.3386 19.5864 17.1589V20.5942L23.2846 18.2795L25.5986 16.828H25.6051L26.2815 16.3991L27.6866 15.5209L30.7293 13.6133L26.3416 10.8628H26.2815V10.8219L19.5864 6.62682V10.8642H13.0415C11.2525 10.8642 9.41126 11.2999 7.91345 12.0801V4.29847C7.91345 3.01311 8.91373 1.96875 10.1465 1.96875H23.5432C29.7081 1.96875 34.7056 7.18645 34.7056 13.6146Z" fill="url(#paint0_linear_8_1103)"/>
<path d="M25.8714 11.1562H25.2404V10.5L25.8714 11.1562Z" fill="#8D88FA"/>
<path d="M30.9195 13.5936L19.6915 20.6178V17.1611C18.923 17.342 18.1691 17.5722 17.4401 17.8571H17.4335C11.6359 20.0889 7.24762 25.3403 6.0252 31.7795C5.79888 32.9618 5.67914 34.1853 5.67914 35.4375V14.7553C5.67914 14.3306 5.78572 13.9347 5.97915 13.5936C6.16073 13.2538 6.46206 12.6729 7.92922 11.9194C9.14374 11.296 11.2859 10.8261 13.4992 10.8261H19.6915V6.5625L30.9195 13.5936Z" fill="url(#paint1_linear_8_1103)"/>
<defs>
<linearGradient id="paint0_linear_8_1103" x1="27.3098" y1="1.39017" x2="-0.722748" y2="40.1488" gradientUnits="userSpaceOnUse">
<stop stop-color="#9977FA"/>
<stop offset="1" stop-color="#0144F8"/>
</linearGradient>
<linearGradient id="paint1_linear_8_1103" x1="3.77133" y1="29.7039" x2="23.5047" y2="9.63638" gradientUnits="userSpaceOnUse">
<stop stop-color="#2BBAE3"/>
<stop offset="1" stop-color="#56F3CE"/>
</linearGradient>
</defs>
</svg>
